<svg viewBox="0 0 96 96" xmlns="http://www.w3.org/2000/svg" xmlns:xlink="http://www.w3.org/1999/xlink" id="Icons_Wine_M" overflow="hidden"><g id="Icons"><path d="M54.1 54.41C60.806 52.89 69.514 47.158 69 41.5L66.8 10.5 30 10.5 27.4 41.5C26.971 47.071 35.337 52.863 41.941 54.4 43.7193 54.7927 44.9891 56.3639 45 58.185L45 78.01C44.9939 79.5229 43.8669 80.7967 42.366 80.987 36.5 81.58 32 83.321 32 85 32 87.209 39.163 89 48 89 56.837 89 64 87.209 64 85 64 83.321 59.5 81.58 53.634 80.987 52.1331 80.7967 51.0061 79.5229 51 78.01L51 58.222C51.0092 56.3808 52.2993 54.7944 54.1 54.41ZM64.937 12.5 65.966 27 30.623 27 31.839 12.5ZM42.19 52.392C36.119 50.892 29.081 45.718 29.39 41.667L30.455 29 66.108 29 67.008 41.681C67.38 45.771 59.978 51.027 53.657 52.46 51.622 53.073 44.744 53.037 42.19 52.392ZM53.37 82.969 53.401 82.969 53.433 82.969C56.2091 83.1432 58.9304 83.8209 61.464 84.969 61.469 84.9714 61.471 84.9774 61.4686 84.9824 61.4677 84.9844 61.466 84.986 61.464 84.987 59.747 85.847 55.096 86.987 48 86.987 40.904 86.987 36.253 85.843 34.536 84.987 34.531 84.9846 34.5289 84.9786 34.5314 84.9736 34.5323 84.9716 34.534 84.97 34.536 84.969 37.0696 83.8209 39.7909 83.1432 42.567 82.969L42.599 82.969 42.63 82.969C45.1203 82.6386 46.9854 80.5221 47 78.01L47 58.185C46.9957 56.9864 46.6202 55.8185 45.925 54.842 46.762 54.887 47.634 54.912 48.498 54.912 49.028 54.912 49.553 54.902 50.063 54.884 49.3748 55.8614 49.0037 57.0267 49 58.222L49 78.01C49.0146 80.5221 50.8797 82.6386 53.37 82.969Z"/></g></svg>